<svg xmlns="http://www.w3.org/2000/svg" width="64" height="64" viewBox="0 0 64 64" role="img" aria-label="FabriXR">
  <defs>
    <linearGradient id="t" x1="0" y1="0" x2="1" y2="1"><stop offset="0" stop-color="#46F4E3"/><stop offset="1" stop-color="#13C6B9"/></linearGradient>
    <linearGradient id="d" x1="0" y1="0" x2="1" y2="1"><stop offset="0" stop-color="#A6BBFF"/><stop offset="1" stop-color="#5C7CFF"/></linearGradient>
    <linearGradient id="n" x1="0" y1="0" x2="1" y2="1"><stop offset="0" stop-color="#16223A"/><stop offset="1" stop-color="#070B16"/></linearGradient>
  </defs>
  <rect x="0" y="0" width="64" height="64" rx="14" fill="url(#n)"/>
  <g fill="none" stroke-linejoin="round" stroke-linecap="round" stroke-width="4.6">
    <path d="M32 11 L50 21.5 M32 11 L14 21.5 M32 11 L32 32" stroke="url(#t)"/>
    <path d="M50 21.5 L50 42.5 L32 53 L14 42.5 L14 21.5 M32 32 L50 42.5 M32 32 L14 42.5 M32 32 L32 53" stroke="url(#d)"/>
  </g>
  <g fill="#EAF7FF">
    <circle cx="32" cy="11" r="2.6"/><circle cx="50" cy="21.5" r="2.6"/><circle cx="14" cy="21.5" r="2.6"/>
    <circle cx="50" cy="42.5" r="2.6"/><circle cx="14" cy="42.5" r="2.6"/><circle cx="32" cy="53" r="2.6"/><circle cx="32" cy="32" r="2.8"/>
  </g>
</svg>
